HIERARCHY
ROOT Hips
{
    OFFSET 0.000000 0.000000 0.000000
    CHANNELS 6 Xposition Yposition Zposition Zrotation Yrotation Xrotation
    JOINT Chest
    {
        OFFSET 0.000000 1.634758 -0.000000
        CHANNELS 3 Zrotation Yrotation Xrotation
        JOINT Chest2
        {
            OFFSET 0.000000 2.197341 0.000000
            CHANNELS 3 Zrotation Yrotation Xrotation
            JOINT Neck
            {
                OFFSET 0.000000 0.961544 0.000000
                CHANNELS 3 Zrotation Yrotation Xrotation
                JOINT Head
                {
                    OFFSET 0.000000 0.632542 -0.032565
                    CHANNELS 3 Zrotation Yrotation Xrotation
                    End Site
                    {
                        OFFSET -0.000001 0.439502 2.922845
                    }
                }
            }
            JOINT LeftCollar
            {
                OFFSET 0.167536 0.778237 -0.168280
                CHANNELS 3 Zrotation Yrotation Xrotation
                JOINT LeftShoulder
                {
                    OFFSET 0.831514 -0.002900 0.006458
                    CHANNELS 3 Zrotation Yrotation Xrotation
                    JOINT LeftElbow
                    {
                        OFFSET 2.272872 -0.026639 0.059314
                        CHANNELS 3 Zrotation Yrotation Xrotation
                        JOINT LeftWrist
                        {
                            OFFSET 2.081982 -0.024402 0.054333
                            CHANNELS 3 Zrotation Yrotation Xrotation
                            JOINT LeftHandThumb1
                            {
                                OFFSET 0.218903 -0.128645 0.283837
                                CHANNELS 3 Zrotation Yrotation Xrotation
                                JOINT LeftHandThumb2
                                {
                                    OFFSET 0.137157 -0.025101 0.077902
                                    CHANNELS 3 Zrotation Yrotation Xrotation
                                    JOINT LeftHandThumb3
                                    {
                                        OFFSET 0.162713 -0.083197 -0.011921
                                        CHANNELS 3 Zrotation Yrotation Xrotation
                                        End Site
                                        {
                                            OFFSET 0.192617 -0.097248 -0.158990
                                        }
                                    }
                                }
                            }
                            JOINT LeftHandFore1
                            {
                                OFFSET 0.767340 -0.016076 0.196678
                                CHANNELS 3 Zrotation Yrotation Xrotation
                                JOINT LeftHandFore2
                                {
                                    OFFSET 0.215899 0.017009 0.009664
                                    CHANNELS 3 Zrotation Yrotation Xrotation
                                    JOINT LeftHandFore3
                                    {
                                        OFFSET 0.115653 -0.057718 0.007473
                                        CHANNELS 3 Zrotation Yrotation Xrotation
                                        End Site
                                        {
                                            OFFSET 0.149115 -0.122771 0.007670
                                        }
                                    }
                                }
                            }
                            JOINT LeftHandMiddle1
                            {
                                OFFSET 0.709887 -0.008320 0.018526
                                CHANNELS 3 Zrotation Yrotation Xrotation
                                JOINT LeftHandMiddle2
                                {
                                    OFFSET 0.181252 -0.164691 0.009387
                                    CHANNELS 3 Zrotation Yrotation Xrotation
                                    JOINT LeftHandMiddle3
                                    {
                                        OFFSET -0.047982 -0.138044 0.004965
                                        CHANNELS 3 Zrotation Yrotation Xrotation
                                        End Site
                                        {
                                            OFFSET -0.190042 0.139654 -0.003357
                                        }
                                    }
                                }
                            }
                            JOINT LeftHandRing1
                            {
                                OFFSET 0.743817 -0.005823 -0.153668
                                CHANNELS 3 Zrotation Yrotation Xrotation
                                JOINT LeftHandRing2
                                {
                                    OFFSET 0.084881 -0.342196 -0.020752
                                    CHANNELS 3 Zrotation Yrotation Xrotation
                                    JOINT LeftHandRing3
                                    {
                                        OFFSET -0.091895 -0.100634 -0.005797
                                        CHANNELS 3 Zrotation Yrotation Xrotation
                                        End Site
                                        {
                                            OFFSET -0.057067 0.105650 0.001107
                                        }
                                    }
                                }
                            }
                            JOINT LeftHandLittle1
                            {
                                OFFSET 0.689408 -0.053302 -0.308304
                                CHANNELS 3 Zrotation Yrotation Xrotation
                                JOINT LeftHandLittle2
                                {
                                    OFFSET 0.059175 -0.182964 -0.032809
                                    CHANNELS 3 Zrotation Yrotation Xrotation
                                    JOINT LeftHandLittle3
                                    {
                                        OFFSET -0.071709 -0.091981 -0.029894
                                        CHANNELS 3 Zrotation Yrotation Xrotation
                                        End Site
                                        {
                                            OFFSET -0.158309 0.105468 -0.010175
                                        }
                                    }
                                }
                            }
                        }
                    }
                }
            }
            JOINT RightCollar
            {
                OFFSET -0.167536 0.778237 -0.168280
                CHANNELS 3 Zrotation Yrotation Xrotation
                JOINT RightShoulder
                {
                    OFFSET -0.831514 -0.002900 0.006457
                    CHANNELS 3 Zrotation Yrotation Xrotation
                    JOINT RightElbow
                    {
                        OFFSET -2.272872 -0.026639 0.059313
                        CHANNELS 3 Zrotation Yrotation Xrotation
                        JOINT RightWrist
                        {
                            OFFSET -2.081982 -0.024402 0.054331
                            CHANNELS 3 Zrotation Yrotation Xrotation
                            JOINT RightHandThumb1
                            {
                                OFFSET -0.218911 -0.128571 0.283837
                                CHANNELS 3 Zrotation Yrotation Xrotation
                                JOINT RightHandThumb2
                                {
                                    OFFSET -0.137157 -0.025101 0.077902
                                    CHANNELS 3 Zrotation Yrotation Xrotation
                                    JOINT RightHandThumb3
                                    {
                                        OFFSET -0.167364 -0.035219 0.065485
                                        CHANNELS 3 Zrotation Yrotation Xrotation
                                        End Site
                                        {
                                            OFFSET -0.226673 -0.101413 0.100853
                                        }
                                    }
                                }
                            }
                            JOINT RightHandFore1
                            {
                                OFFSET -0.767344 -0.015991 0.196679
                                CHANNELS 3 Zrotation Yrotation Xrotation
                                JOINT RightHandFore2
                                {
                                    OFFSET -0.215520 0.021369 0.009542
                                    CHANNELS 3 Zrotation Yrotation Xrotation
                                    JOINT RightHandFore3
                                    {
                                        OFFSET -0.121492 -0.044627 0.003187
                                        CHANNELS 3 Zrotation Yrotation Xrotation
                                        End Site
                                        {
                                            OFFSET -0.182746 -0.062350 0.009114
                                        }
                                    }
                                }
                            }
                            JOINT RightHandMiddle1
                            {
                                OFFSET -0.709887 -0.008302 0.018525
                                CHANNELS 3 Zrotation Yrotation Xrotation
                                JOINT RightHandMiddle2
                                {
                                    OFFSET -0.241129 -0.043240 0.006995
                                    CHANNELS 3 Zrotation Yrotation Xrotation
                                    JOINT RightHandMiddle3
                                    {
                                        OFFSET -0.132007 -0.062846 0.002969
                                        CHANNELS 3 Zrotation Yrotation Xrotation
                                        End Site
                                        {
                                            OFFSET -0.205287 -0.116076 0.003719
                                        }
                                    }
                                }
                            }
                            JOINT RightHandRing1
                            {
                                OFFSET -0.743819 -0.005785 -0.153669
                                CHANNELS 3 Zrotation Yrotation Xrotation
                                JOINT RightHandRing2
                                {
                                    OFFSET -0.334809 -0.112046 -0.009032
                                    CHANNELS 3 Zrotation Yrotation Xrotation
                                    JOINT RightHandRing3
                                    {
                                        OFFSET -0.086211 -0.105192 -0.010360
                                        CHANNELS 3 Zrotation Yrotation Xrotation
                                        End Site
                                        {
                                            OFFSET -0.063567 -0.101479 -0.009032
                                        }
                                    }
                                }
                            }
                            JOINT RightHandLittle1
                            {
                                OFFSET -0.689403 -0.053298 -0.308303
                                CHANNELS 3 Zrotation Yrotation Xrotation
                                JOINT RightHandLittle2
                                {
                                    OFFSET -0.178863 -0.075468 -0.019183
                                    CHANNELS 3 Zrotation Yrotation Xrotation
                                    JOINT RightHandLittle3
                                    {
                                        OFFSET -0.077208 -0.091605 -0.011957
                                        CHANNELS 3 Zrotation Yrotation Xrotation
                                        End Site
                                        {
                                            OFFSET -0.112774 -0.151275 -0.026199
                                        }
                                    }
                                }
                            }
                        }
                    }
                }
            }
        }
    }
    JOINT LeftHip
    {
        OFFSET 0.685143 0.673822 -0.044491
        CHANNELS 3 Zrotation Yrotation Xrotation
        JOINT LeftKnee
        {
            OFFSET 0.085364 -3.750208 0.017676
            CHANNELS 3 Zrotation Yrotation Xrotation
            JOINT LeftAnkle
            {
                OFFSET 0.094583 -4.155206 0.019585
                CHANNELS 3 Zrotation Yrotation Xrotation
                JOINT LeftToe
                {
                    OFFSET -0.000000 -0.395925 0.621478
                    CHANNELS 3 Zrotation Yrotation Xrotation
                    End Site
                    {
                        OFFSET -0.000000 -0.077878 0.321152
                    }
                }
            }
        }
    }
    JOINT RightHip
    {
        OFFSET -0.685143 0.673822 -0.044492
        CHANNELS 3 Zrotation Yrotation Xrotation
        JOINT RightKnee
        {
            OFFSET -0.085364 -3.750208 0.017677
            CHANNELS 3 Zrotation Yrotation Xrotation
            JOINT RightAnkle
            {
                OFFSET -0.094583 -4.155206 0.019585
                CHANNELS 3 Zrotation Yrotation Xrotation
                JOINT RightToe
                {
                    OFFSET -0.000000 -0.395925 0.621478
                    CHANNELS 3 Zrotation Yrotation Xrotation
                    End Site
                    {
                        OFFSET -0.000000 -0.077878 0.321152
                    }
                }
            }
        }
    }
}
MOTION
Frames: 4
Frame Time: 0.033333
-0.016254 8.329044 -0.445096 180.000000 -0.000011 180.000000 0.572956 2.864788 -3.571786 0.028333 -0.444751 -3.645365 5.608446 -1.186879 4.712766 0.159397 -3.093001 11.033315 -7.308637 -0.585425 -0.060280 -56.248138 46.757175 6.643464 177.975693 -60.399902 -178.829086 -44.655045 -9.270110 -5.850301 -0.000002 0.000003 0.000004 0.000002 -0.000007 -0.000001 -0.000002 0.000006 -0.000000 0.000003 0.000001 0.000000 0.000003 -0.000000 0.000002 -0.000002 -0.000001 0.000000 0.000002 0.000000 0.000001 0.000002 0.000001 -0.000001 0.000002 0.000001 0.000000 0.000003 0.000000 0.000001 -0.000003 -0.000001 -0.000000 0.000000 0.000002 0.000000 0.000002 -0.000000 0.000002 -0.000007 -0.000000 0.000000 0.000000 -0.000000 0.000000 11.573317 1.119004 0.087029 50.133381 -28.728687 10.256208 -1.144380 68.411324 -1.690783 22.687607 -7.087830 -9.378269 -0.000003 -0.000002 0.000001 0.000001 -0.000000 0.000001 -0.000003 0.000007 0.000000 0.000000 0.000005 0.000001 -0.000002 -0.000005 -0.000003 0.000002 -0.000000 -0.000001 0.000000 -0.000000 -0.000001 0.000002 -0.000002 0.000001 -0.000001 0.000003 -0.000003 0.000002 -0.000002 0.000005 0.000003 -0.000000 -0.000003 -0.000004 0.000003 0.000006 0.000003 -0.000000 0.000003 0.000008 -0.000000 -0.000001 -0.000007 -0.000002 0.000001 -11.099580 1.582298 13.605212 0.005906 0.123937 5.453020 3.159729 5.305525 -15.289744 0.000000 0.000000 -0.000004 7.002398 1.137493 -16.911556 -0.007200 -0.136882 6.024559 -4.650454 -4.206570 9.421553 0.000000 -0.000000 -0.000002
0.023915 8.329572 -0.467492 -178.542099 -0.137552 -179.974045 1.577023 2.901192 -3.598861 0.897746 -0.514339 -3.703162 5.489440 -1.133678 4.424208 0.166265 -3.226042 10.463640 -7.311101 -1.529074 -0.080052 -60.990578 39.474541 1.651497 177.903488 -62.037994 -178.746597 -44.743553 -9.171958 -5.780062 -0.000007 0.000002 0.000005 -0.000005 -0.000003 -0.000000 -0.000009 0.000006 0.000002 0.000002 -0.000005 -0.000009 0.000003 0.000001 -0.000002 0.000003 -0.000002 -0.000000 -0.000007 -0.000007 -0.000007 0.000003 0.000000 -0.000000 -0.000009 -0.000002 0.000001 -0.000010 -0.000005 -0.000006 -0.000005 0.000001 0.000000 0.000007 -0.000000 0.000001 -0.000003 -0.000002 -0.000005 0.000000 -0.000001 0.000001 -0.000003 -0.000001 0.000000 11.661953 0.870637 0.114378 49.627880 -28.881687 9.705652 -0.929955 65.339546 -1.457507 21.746296 -6.582819 -5.654440 0.000006 -0.000005 -0.000004 0.000003 0.000002 -0.000003 -0.000003 0.000003 0.000002 0.000003 0.000010 -0.000003 0.000002 -0.000002 -0.000003 0.000001 -0.000002 -0.000001 0.000006 0.000005 -0.000003 -0.000001 -0.000000 -0.000001 -0.000005 -0.000000 0.000002 0.000006 0.000010 -0.000006 0.000002 0.000002 0.000003 0.000002 -0.000002 -0.000002 0.000004 0.000010 -0.000003 0.000007 -0.000002 -0.000002 -0.000003 0.000007 -0.000003 -9.396581 1.522785 10.914511 0.023413 0.245978 10.871467 2.823357 5.188346 -17.804440 -0.000000 -0.000003 -0.000001 8.604654 1.064646 -13.589435 0.000001 -0.000000 0.000000 -4.991028 -4.153056 12.084363 -0.000000 -0.000001 0.000006
0.097197 8.333370 -0.531826 -175.828918 -0.506163 -179.925797 3.372006 2.712981 -3.669291 2.304648 -0.584976 -3.799763 5.159898 -1.052139 3.847342 0.173994 -3.375652 9.344585 -7.143047 -3.257008 -0.105723 -64.231026 26.260740 -1.963530 177.660217 -66.393311 -178.476288 -44.979885 -8.902309 -5.592920 0.000000 0.000005 0.000015 0.000005 -0.000003 -0.000003 -0.000002 0.000007 0.000003 -0.000009 -0.000003 0.000001 -0.000007 -0.000001 0.000000 0.000007 0.000001 -0.000001 0.000024 -0.000001 0.000003 -0.000002 0.000001 -0.000001 -0.000003 0.000000 -0.000001 0.000024 -0.000001 -0.000000 -0.000003 0.000001 -0.000002 0.000003 0.000001 0.000002 0.000022 -0.000003 0.000001 0.000002 0.000001 0.000004 -0.000002 -0.000000 -0.000002 11.906955 0.157064 0.153919 48.852592 -28.535513 8.543818 -0.560486 57.142544 -1.036537 19.528351 -5.313856 -0.696788 0.000006 -0.000003 0.000001 -0.000003 -0.000000 -0.000001 0.000001 0.000005 0.000001 -0.000004 -0.000000 0.000005 -0.000001 -0.000002 0.000002 0.000001 0.000002 0.000001 -0.000001 -0.000002 0.000006 0.000000 0.000003 0.000002 -0.000005 -0.000002 0.000001 -0.000002 0.000002 0.000005 0.000006 0.000002 0.000003 -0.000004 0.000005 0.000003 0.000003 0.000003 0.000007 0.000009 -0.000000 0.000003 -0.000008 0.000003 -0.000002 -6.110824 1.461238 8.120725 0.056903 0.381001 16.986090 2.380991 4.752079 -20.599419 0.000000 -0.000000 -0.000002 11.508587 1.055626 -13.179382 -0.000000 0.000000 0.000000 -5.206080 -4.504364 11.555925 -0.000001 -0.000000 0.000004
0.142841 8.337989 -0.633815 -174.001129 -1.039822 -179.899811 4.395507 1.935902 -3.744760 2.720845 -0.494627 -3.808914 4.654195 -1.075355 3.419143 0.169899 -3.296425 8.553192 -6.606730 -4.340435 -0.095403 -65.271431 18.915434 -4.495085 177.593826 -67.348640 -178.404037 -45.320755 -8.499208 -5.325113 0.000000 0.000004 0.000015 -0.000005 -0.000007 -0.000004 -0.000003 0.000006 0.000003 -0.000007 -0.000004 -0.000005 -0.000003 0.000003 0.000002 0.000005 -0.000000 0.000000 0.000015 -0.000005 0.000000 -0.000009 -0.000001 -0.000002 -0.000022 -0.000001 -0.000001 0.000000 -0.000004 -0.000006 -0.000002 0.000002 -0.000003 -0.000002 -0.000000 -0.000001 0.000002 -0.000002 -0.000002 0.000003 -0.000002 0.000000 -0.000003 -0.000000 0.000000 12.279953 -0.939383 0.149062 48.766563 -26.699972 7.285273 -0.279594 45.308735 -0.677181 16.769037 -3.635728 2.031578 0.000006 -0.000009 0.000000 -0.000003 0.000005 -0.000003 -0.000002 0.000002 0.000000 0.000005 -0.000000 -0.000002 0.000005 -0.000000 0.000000 -0.000000 0.000002 -0.000001 0.000009 -0.000014 -0.000002 -0.000002 0.000002 0.000002 -0.000005 0.000003 0.000000 0.000002 -0.000005 -0.000003 0.000001 -0.000002 -0.000003 0.000000 -0.000000 -0.000001 0.000009 -0.000000 -0.000003 0.000007 0.000002 0.000003 -0.000006 0.000002 0.000002 -3.651838 1.435053 6.869203 0.083406 0.458877 20.600842 2.100838 4.095693 -22.294573 -0.000001 -0.000000 -0.000000 13.380715 1.041782 -12.562404 -0.000000 -0.000000 0.000000 -5.278598 -5.073953 10.785647 0.000000 -0.000000 -0.000003
